HIERARCHY
ROOT pelvis
{
  OFFSET 0 100 0
  CHANNELS 6 Xposition Yposition Zposition Zrotation Xrotation Yrotation
  JOINT pelvis_right_femur
  {
    OFFSET -10.78128 -3.44521 -0.5502486
    CHANNELS 3 Zrotation Xrotation Yrotation
    JOINT right_femur_tibia
    {
      OFFSET -0.8047443 -44.0398 -0.1307829
      CHANNELS 3 Zrotation Xrotation Yrotation
      JOINT right_tibia_foot
      {
        OFFSET 3.006224 -47.83518 -5
        CHANNELS 3 Zrotation Xrotation Yrotation
        End Site
        {
          OFFSET 0 -5 15
        }
      }
    }
  }
  JOINT pelvis_left_femur
  {
    OFFSET 10.78128 -3.44521 -0.5502486
    CHANNELS 3 Zrotation Xrotation Yrotation
    JOINT left_femur_tibia
    {
      OFFSET 0.8047443 -44.0398 -0.1307829
      CHANNELS 3 Zrotation Xrotation Yrotation
      JOINT left_tibia_foot
      {
        OFFSET -4.370144 -48.10324 -4.275266
        CHANNELS 3 Zrotation Xrotation Yrotation
        End Site
        {
          OFFSET 0 -5 15
        }
      }
    }
  }
  JOINT pelvis_spine1
  {
    OFFSET 0 6.468898 -3.129235
    CHANNELS 3 Zrotation Xrotation Yrotation
    JOINT spine1
    {
      OFFSET 0 23.15396 4.99043
      CHANNELS 3 Zrotation Xrotation Yrotation
      JOINT spine2
      {
        OFFSET 0 20.79997 -5.064912
        CHANNELS 3 Zrotation Xrotation Yrotation
        JOINT neck
        {
          OFFSET 0 14.38658 9.616178
          CHANNELS 3 Zrotation Xrotation Yrotation
          End Site
          {
            OFFSET 0 20 0
          }
        }
      }
      JOINT right_manubrium
      {
        OFFSET -5.722621 16.35077 3.967754
        CHANNELS 3 Zrotation Xrotation Yrotation
        JOINT right_clavicle
        {
          OFFSET -13.16364 1.694482 -4.693211
          CHANNELS 3 Zrotation Xrotation Yrotation
          JOINT right_humerus
          {
            OFFSET -28.5034 -0.3100689 -2.792744
            CHANNELS 3 Zrotation Xrotation Yrotation
            JOINT right_radius
            {
              OFFSET -25.15693 0.02248979 -1.271978
              CHANNELS 3 Zrotation Xrotation Yrotation
              End Site
              {
                OFFSET -15 0 0
              }
            }
          }
        }
      }
      JOINT left_manubrium
      {
        OFFSET 5.722621 16.35077 3.967754
        CHANNELS 3 Zrotation Xrotation Yrotation
        JOINT left_clavicle
        {
          OFFSET 13.16364 1.694482 -4.693211
          CHANNELS 3 Zrotation Xrotation Yrotation
          JOINT left_humerus
          {
            OFFSET 29.39168 -1.063119 -2.237045
            CHANNELS 3 Zrotation Xrotation Yrotation
            JOINT left_radius
            {
              OFFSET 24.59957 -0.9528479 0.9047498
              CHANNELS 3 Zrotation Xrotation Yrotation
              End Site
              {
                OFFSET 15 -0 -0
              }
            }
          }
        }
      }
    }
  }
}
MOTION
Frames: 17
Frame Time: 0.0416666666667
0 103.5113 0 0.9705626 -1.116502 0.04116702 3.218377 -17.76448 7.476989 -0 35.62536 -0 -6.010684 -15.18181 -3.271703 -6.899341 12.17617 -22.90927 -0 4.90194 -0 6.380389 -18.55053 25.07902 -3.030695 -4.137133 3.162155 4.08599 7.907659 -9.543123 1.147839 18.87615 8.588289 4.663802 -27.86262 10.16259 7.195402 -18.38568 12.00174 82.56489 32.03368 -18.65366 -0 0 18.05703 -9.146465 11.01599 4.981251 9.910375 -21.48688 3.189272 -94.71032 21.11554 19.98154 0 0 -10.44731 11.9986 18.9231 -1.775931
0.2440551 103.3892 1.638264 0.4728812 -0.1947116 0.0309413 3.886513 -20.43285 7.944846 -0 35.23203 -0 -5.890099 -14.45516 -3.260386 -6.569361 11.95984 -22.76181 -0 4.800341 -0 5.290913 -19.70164 24.39671 -3.014468 -3.985084 3.182566 4.061509 7.971068 -9.523235 1.097059 18.8698 8.698881 4.699293 -27.83237 10.20395 7.088701 -18.35667 12.01594 82.86236 32.43686 -18.79801 -0 0 17.64405 -9.170614 10.95602 5.088017 9.84539 -21.59801 3.012689 -94.17565 20.98852 19.46347 0 0 -11.56396 12.23594 18.2766 -2.008276
0.4934164 103.0822 3.665008 0.07349056 0.620721 0.07289858 4.584012 -24.25189 7.300375 -0 31.25609 -0 -5.925943 -12.24891 -2.95371 -6.30846 12.21667 -21.37977 -0 5.209571 -0 5.435021 -20.69069 23.44585 -2.450777 -3.325151 3.358379 3.916181 8.432512 -9.329177 1.016701 19.05867 8.515152 4.577384 -27.56238 9.954847 6.674459 -17.96313 11.87644 84.34294 33.32232 -19.93667 -0 0 15.66012 -9.212003 10.85528 5.188455 9.194402 -21.91448 1.878337 -93.11574 21.43617 18.71784 0 0 -14.34686 11.92804 16.49635 -1.220743
0.750495 102.6368 6.004651 -0.2211787 1.479421 0.1720338 5.219667 -27.42369 7.078267 -0 27.9412 -0 -5.780039 -10.79738 -2.759964 -6.151645 12.43299 -20.40048 -0 5.544308 -0 5.740871 -21.4121 22.77661 -2.050374 -2.849008 3.494121 3.799325 8.773863 -9.18309 0.9554838 19.21972 8.351089 4.469209 -27.32815 9.734084 6.367459 -17.69061 11.79155 85.37979 33.83735 -20.69714 -0 0 14.30805 -9.343812 10.81006 5.295166 8.689301 -22.11054 1.076001 -92.42046 21.74734 18.29039 0 0 -16.09072 11.61308 15.30635 -0.569688
1.005058 102.0354 8.78468 -0.4385425 2.238361 0.3579428 5.755185 -30.34017 6.536906 -0 23.90754 -0 -5.742346 -9.031131 -2.463765 -6.072509 12.89101 -19.21014 -0 6.285523 -0 6.304151 -21.88641 22.05629 -1.737161 -2.458701 3.571484 3.717988 9.01613 -9.100468 0.8770657 19.31863 8.26505 4.417785 -27.14823 9.530754 6.106517 -17.44395 11.74769 86.17667 34.14059 -21.2717 -0 0 13.24533 -9.628233 10.84012 5.473038 8.319455 -22.29378 0.4983429 -91.84049 21.91683 17.88685 0 0 -17.37728 11.28465 14.36607 -0.03737547
1.252759 101.3184 12.06722 -0.6661517 2.936404 0.6547049 6.25304 -32.82571 5.916785 -0 20.00805 -0 -5.863338 -7.145718 -2.120722 -5.999788 13.47136 -18.02653 -0 7.47299 -0 6.661836 -22.14929 21.17268 -1.485466 -2.127834 3.624029 3.652944 9.207763 -9.039614 0.799188 19.40222 8.200199 4.382892 -26.98544 9.335905 5.888948 -17.22374 11.72247 86.7995 34.32596 -21.70404 -0 0 12.37905 -9.973785 10.90169 5.680107 8.007561 -22.44182 0.03817813 -91.36856 22.04045 17.55494 0 0 -18.32639 10.93537 13.60393 0.4601963
1.486771 100.5439 15.94393 -0.9409436 3.481843 1.082282 6.696074 -34.66223 5.101799 -0 16.39519 -0 -6.265265 -5.013734 -1.699423 -5.884572 14.18697 -16.7665 -0 9.439839 -0 6.552916 -22.06951 19.91382 -1.279007 -1.83177 3.654013 3.600838 9.361904 -8.996036 0.7173247 19.47385 8.157778 4.364848 -26.83312 9.143895 5.699293 -17.01339 11.7109 87.30122 34.4323 -22.03436 -0 0 11.63002 -10.38835 10.99122 5.928281 7.734872 -22.5696 -0.3438965 -90.95067 22.12809 17.24388 0 0 -19.06488 10.55791 12.94084 0.9454854
1.70361 99.81353 20.48732 -1.308116 3.83436 1.640798 7.123693 -35.5728 4.194026 -0 13.53379 -0 -6.96886 -2.814286 -1.238489 -5.653744 14.9274 -15.46323 -0 12.49832 -0 5.629699 -21.46965 18.09428 -1.111709 -1.560517 3.671053 3.555728 9.49178 -8.957679 0.6348934 19.54707 8.12297 4.352707 -26.67795 8.949963 5.534435 -16.81231 11.70781 87.70159 34.48721 -22.2721 -0 0 10.96926 -10.85654 11.09735 6.213996 7.477243 -22.67031 -0.678979 -90.57728 22.20334 16.96166 0 0 -19.63344 10.14456 12.34887 1.447353
1.902121 99.27376 25.7375 -1.782726 3.918153 2.283287 7.581926 -35.19013 3.338503 -0 11.86987 -0 -7.920669 -0.8439912 -0.8238215 -5.231456 15.49588 -14.11879 -0 17.13799 -0 3.658097 -20.02213 15.61814 -0.9814808 -1.305803 3.679803 3.514087 9.604287 -8.917846 0.5521946 19.62957 8.089646 4.341517 -26.51031 8.749753 5.390692 -16.61862 11.71115 88.01206 34.50651 -22.41962 -0 0 10.37627 -11.38082 11.21516 6.543701 7.219542 -22.74045 -0.9857886 -90.23474 22.27656 16.70423 0 0 -20.06325 9.685131 11.80305 1.987172
2.084198 99.11306 31.65623 -2.333107 3.672685 2.886205 8.129307 -33.21908 2.820432 -0 11.77689 -0 -8.921003 0.4323657 -0.639376 -4.568689 15.52577 -12.76772 -0 23.89624 -0 0.737611 -17.36249 12.71207 -0.8903073 -1.063224 3.687015 3.471849 9.705069 -8.867575 0.471009 19.73167 8.04833 4.323889 -26.318 8.538656 5.268257 -16.43494 11.71955 88.23097 34.50387 -22.46656 -0 0 9.846628 -11.96091 11.3382 6.922845 6.945298 -22.76961 -1.279321 -89.92089 22.3612 16.48312 0 0 -20.36115 9.166691 11.29108 2.589489
2.251376 99.51871 38.08154 -2.832368 3.003048 3.24104 8.719967 -29.56759 2.894027 -0 13.21737 -0 -9.694549 0.6144217 -0.9039 -3.728022 14.4954 -11.46166 -0 33.14568 -0 -2.439839 -13.38863 10.11676 -0.8440478 -0.8299865 3.700166 3.424449 9.797926 -8.797251 0.3929584 19.86383 7.990921 4.292843 -26.08733 8.312707 5.16804 -16.26725 11.733 88.34817 34.49112 -22.3922 -0 0 9.386573 -12.6005 11.45956 7.360069 6.639182 -22.7445 -1.570491 -89.63454 22.46775 16.31182 0 0 -20.52707 8.575633 10.80268 3.277232
2.401381 100.5851 44.70729 -3.040168 1.769795 3.133702 9.091847 -24.45562 3.502333 -0 15.40844 -0 -10.09159 -0.3417655 -1.640631 -2.965113 11.83664 -10.29681 -0 44.41042 -0 -4.771434 -8.79306 8.862983 -0.8522595 -0.6052922 3.72935 3.365313 9.886024 -8.695606 0.3202559 20.03634 7.910748 4.241459 -25.80238 8.070223 5.090361 -16.12795 11.75275 88.34607 34.47846 -22.16461 -0 0 9.016815 -13.30384 11.5699 7.864203 6.287887 -22.64892 -1.86629 -89.37494 22.60242 16.20676 0 0 -20.55893 7.902998 10.32811 4.066653
2.530775 102.2025 51.14546 -2.70107 -0.05651411 2.53885 8.845589 -18.31624 4.105605 -0 16.87108 -0 -10.18957 -2.079266 -2.442848 -2.620986 7.149237 -9.383729 -0 55.51226 -0 -5.581904 -5.082998 9.422265 -0.9261394 -0.3914816 3.786987 3.285242 9.971767 -8.551559 0.2559249 20.25504 7.805514 4.165335 -25.44756 7.814083 5.03301 -16.03704 11.78104 88.20256 34.46855 -21.74452 -0 0 8.775465 -14.07514 11.65844 8.440975 5.88645 -22.46794 -2.166536 -89.14093 22.76216 16.183 0 0 -20.45798 7.151016 9.858017 4.958814
2.638482 104.0245 57.10433 -1.787897 -2.065081 1.733029 7.848527 -11.68916 4.152933 -0 16.29775 -0 -9.970185 -4.215386 -2.74873 -2.697715 0.544551 -8.680615 -0 62.8442 -0 -5.300214 -3.449109 11.11423 -1.073144 -0.1970657 3.884943 3.174738 10.05446 -8.35823 0.2043193 20.51529 7.678518 4.065559 -25.01435 7.552681 4.993088 -16.01811 11.81958 87.89433 34.44945 -21.09817 -0 0 8.716503 -14.9121 11.71672 9.086029 5.446478 -22.19333 -2.459304 -88.93881 22.93621 16.25547 0 0 -20.22434 6.334559 9.393214 5.937384
2.718275 105.5837 62.57362 -0.6645108 -3.702496 1.022072 6.582996 -5.255875 3.757877 -0 13.78327 -0 -9.228718 -6.430514 -2.536972 -2.583126 -6.903833 -7.829947 -0 63.77895 -0 -4.818843 -3.604472 12.93958 -1.289828 -0.03623666 4.028558 3.028999 10.12819 -8.11796 0.1704282 20.7982 7.538464 3.950741 -24.50893 7.298057 4.969608 -16.08739 11.86762 87.40861 34.39395 -20.22072 -0 0 8.890313 -15.79931 11.74318 9.780485 4.998518 -21.83014 -2.722818 -88.78538 23.11274 16.43387 0 0 -19.86159 5.475038 8.949384 6.976383
2.776089 106.5042 67.77606 0.1315115 -4.971709 0.439043 5.758378 0.3944318 3.365592 -0 10.80036 -0 -8.118948 -8.433599 -2.285062 -1.617143 -13.53357 -6.457015 -0 58.57518 -0 -4.388029 -4.335339 14.64723 -1.55845 0.07829835 4.21532 2.849059 10.18623 -7.841535 0.158576 21.07639 7.395656 3.833576 -23.94985 7.061876 4.961937 -16.24666 11.92168 86.7597 34.26986 -19.15081 -0 0 9.318099 -16.70744 11.74285 10.49248 4.580305 -21.39776 -2.938577 -88.69826 23.28467 16.71567 0 0 -19.39351 4.594622 8.54546 8.050274
2.863324 106.6699 72.93955 0.355117 -5.936051 -0.1297438 5.540101 5.10288 3.126011 -0 8.695047 -0 -7.070842 -10.36536 -2.155122 0.09872832 -18.5293 -4.732216 -0 49.41446 -0 -3.820649 -4.81955 16.22125 -1.849981 0.1421373 4.439314 2.638468 10.22795 -7.542758 0.1715197 21.32373 7.257617 3.724925 -23.35914 6.852609 4.96589 -16.48627 11.97724 85.9939 34.05164 -17.9625 -0 0 9.984478 -17.59884 11.72357 11.18254 4.222363 -20.92469 -3.10177 -88.68586 23.44852 17.08693 0 0 -18.8691 3.717453 8.190508 9.134162
